<svg width="381" height="74" viewBox="0 0 381 74" fill="none" xmlns="http://www.w3.org/2000/svg">
<g clip-path="url(#clip0)">
<g style="mix-blend-mode:screen">
<path d="M41.8 61.3601C38 65.1601 32.76 67.5001 26.97 67.5001C21.18 67.5001 15.94 65.1501 12.14 61.3601C8.35 57.5701 6 52.3201 6 46.5301C6 40.7401 8.35 35.5001 12.14 31.7001C15.93 27.9001 21.18 25.5601 26.97 25.5601C32.76 25.5601 38 27.9101 41.8 31.7001" stroke="#7200E3" stroke-width="12" stroke-miterlimit="10"/>
</g>
<g style="mix-blend-mode:screen">
<path d="M54.47 46.5301C54.47 40.7401 56.82 35.5001 60.61 31.7001C64.4 27.9001 69.65 25.5601 75.44 25.5601C81.23 25.5601 86.47 27.9101 90.27 31.7001" stroke="#C60000" stroke-width="12" stroke-miterlimit="10"/>
</g>
<g style="mix-blend-mode:screen">
<path d="M332.16 46.5301C332.16 40.7401 334.51 35.5001 338.3 31.7001C342.1 27.9001 347.34 25.5601 353.13 25.5601C358.92 25.5601 364.16 27.9101 367.96 31.7001C371.76 35.5001 374.1 40.7401 374.1 46.5301V73.3201" stroke="#7200E3" stroke-width="12" stroke-miterlimit="10"/>
</g>
<g style="mix-blend-mode:screen">
<path d="M317.45 46.5301C317.45 52.3201 315.1 57.5601 311.31 61.3601C307.52 65.1601 302.27 67.5001 296.48 67.5001C290.69 67.5001 285.45 65.1501 281.65 61.3601C277.85 57.5601 275.51 52.3201 275.51 46.5301C275.51 40.7401 277.86 35.5001 281.65 31.7001C285.45 27.9001 290.69 25.5601 296.48 25.5601C302.27 25.5601 307.51 27.9101 311.31 31.7001C315.1 35.5001 317.45 40.7401 317.45 46.5301Z" stroke="#C60000" stroke-width="12" stroke-miterlimit="10"/>
</g>
<g style="mix-blend-mode:screen">
<path d="M194.92 46.5301C194.92 52.3201 192.57 57.5601 188.78 61.3601C184.99 65.1601 179.74 67.5001 173.95 67.5001C168.16 67.5001 162.92 65.1501 159.12 61.3601C155.32 57.5601 152.98 52.3201 152.98 46.5301C152.98 40.7401 155.33 35.5001 159.12 31.7001C162.91 27.9001 168.16 25.5601 173.95 25.5601C179.74 25.5601 184.98 27.9101 188.78 31.7001C192.57 35.5001 194.92 40.7401 194.92 46.5301Z" stroke="#C60000" stroke-width="12" stroke-miterlimit="10"/>
</g>
<g style="mix-blend-mode:screen">
<path d="M132.12 61.3601C128.32 65.1601 123.08 67.5001 117.29 67.5001C111.5 67.5001 106.26 65.1501 102.46 61.3601C98.6601 57.5601 96.3201 52.3201 96.3201 46.5301C96.3201 40.7401 98.6701 35.5001 102.46 31.7001C106.25 27.9001 111.5 25.5601 117.29 25.5601C123.08 25.5601 128.32 27.9101 132.12 31.7001C135.92 35.5001 138.26 40.7401 138.26 46.5301V52.5901" stroke="#7200E3" stroke-width="12" stroke-miterlimit="10"/>
</g>
<g style="mix-blend-mode:screen">
<path d="M249.65 65.86C247.14 66.92 244.38 67.51 241.49 67.51C235.7 67.51 230.46 65.16 226.66 61.37C222.86 57.57 220.52 52.33 220.52 46.54V0" stroke="#7200E3" stroke-width="12" stroke-miterlimit="10"/>
</g>
<g style="mix-blend-mode:screen">
<path d="M54.47 73.32V19.74" stroke="#FF881A" stroke-width="12" stroke-miterlimit="10"/>
</g>
<g style="mix-blend-mode:screen">
<path d="M194.92 73.32V19.74" stroke="#FF881A" stroke-width="12" stroke-miterlimit="10"/>
</g>
<g style="mix-blend-mode:screen">
<path d="M260.31 73.32V19.74" stroke="#C60000" stroke-width="12" stroke-miterlimit="10"/>
</g>
<g style="mix-blend-mode:screen">
<path d="M332.16 73.32V19.74" stroke="#FF881A" stroke-width="12" stroke-miterlimit="10"/>
</g>
<g style="mix-blend-mode:screen">
<path d="M260.31 12.8999V2.8999" stroke="#FF881A" stroke-width="12" stroke-miterlimit="10"/>
</g>
<g style="mix-blend-mode:screen">
<path d="M96.3201 46.53H138.27" stroke="#FF881A" stroke-width="12" stroke-miterlimit="10"/>
</g>
<g style="mix-blend-mode:screen">
<path d="M206.69 25.74H246.59" stroke="#C60000" stroke-width="12" stroke-miterlimit="10"/>
</g>
</g>
<defs>
<clipPath id="clip0">
<rect width="380.11" height="73.5" fill="white"/>
</clipPath>
</defs>
</svg>
