<svg width="600" height="600" viewBox="0 0 600 600" fill="none" xmlns="http://www.w3.org/2000/svg">
<g clip-path="url(#clip0)">
<path d="M38.6578 97.6577L100.56 114.244L55.2444 159.56L38.6578 97.6577Z" fill="#333333"/>
<path d="M552.462 235.008L558.968 254.308L539.001 250.292L552.462 235.008Z" fill="#333333"/>
<path d="M489.165 184.318L495.671 203.619L475.704 199.603L489.165 184.318Z" fill="#333333"/>
<path d="M481.707 436.615L550.682 444.04L509.764 500.062L481.707 436.615Z" fill="#333333"/>
<path d="M70 318C70 327.941 61.9411 336 52 336C42.0589 336 34 327.941 34 318C34 308.059 42.0589 300 52 300C61.9411 300 70 308.059 70 318Z" fill="#333333"/>
<path d="M376 527C376 532.523 371.523 537 366 537C360.477 537 356 532.523 356 527C356 521.477 360.477 517 366 517C371.523 517 376 521.477 376 527Z" fill="#333333"/>
<path d="M246 547C246 552.523 241.523 557 236 557C230.477 557 226 552.523 226 547C226 541.477 230.477 537 236 537C241.523 537 246 541.477 246 547Z" fill="#333333"/>
<path d="M459.473 42L496.038 66.4734L471.565 103.039L434.999 78.5658L459.473 42Z" fill="#333333"/>
<path fill-rule="evenodd" clip-rule="evenodd" d="M116.08 525.726C112.824 525.953 109.742 527.844 107.966 529.614C106.009 531.563 102.843 531.556 100.895 529.6C98.9458 527.643 98.952 524.478 100.908 522.529C103.843 519.606 109.059 516.191 115.385 515.75C122.155 515.278 129.172 518.282 134.957 526.423C139.147 532.319 142.787 533.233 145.096 533.12C147.809 532.987 150.341 531.359 151.787 529.771C153.645 527.728 156.808 527.579 158.85 529.437C160.893 531.296 161.042 534.458 159.183 536.501C156.532 539.415 151.686 542.809 145.585 543.108C139.079 543.426 132.465 540.18 126.806 532.216C122.742 526.497 118.892 525.53 116.08 525.726Z" fill="#333333"/>
<path fill-rule="evenodd" clip-rule="evenodd" d="M119.465 501.617C116.209 501.844 113.127 503.736 111.35 505.505C109.394 507.454 106.228 507.448 104.279 505.491C102.331 503.535 102.337 500.369 104.293 498.42C107.228 495.497 112.443 492.082 118.77 491.641C125.54 491.169 132.557 494.173 138.342 502.314C142.532 508.21 146.172 509.124 148.481 509.011C151.194 508.878 153.726 507.25 155.172 505.662C157.03 503.619 160.192 503.47 162.235 505.329C164.277 507.187 164.427 510.349 162.568 512.392C159.916 515.306 155.071 518.7 148.969 518.999C142.463 519.317 135.85 516.071 130.191 508.107C126.127 502.388 122.277 501.421 119.465 501.617Z" fill="#333333"/>
<path fill-rule="evenodd" clip-rule="evenodd" d="M187.139 133.482C185.405 131.333 185.743 128.185 187.892 126.452L195.251 120.517C197.401 118.783 200.548 119.121 202.282 121.27C204.015 123.42 203.678 126.567 201.529 128.301L194.17 134.236C192.02 135.969 188.872 135.632 187.139 133.482ZM207.744 116.865C206.011 114.716 206.348 111.568 208.497 109.834L223.216 97.9646C225.365 96.2312 228.513 96.5684 230.246 98.7179C231.98 100.867 231.643 104.015 229.493 105.749L214.775 117.618C212.625 119.352 209.478 119.015 207.744 116.865ZM235.709 94.3129C233.975 92.1634 234.312 89.0156 236.462 87.2821L251.18 75.4125C253.33 73.679 256.477 74.0163 258.211 76.1658C259.944 78.3153 259.607 81.4631 257.458 83.1966L242.739 95.0662C240.59 96.7997 237.442 96.4624 235.709 94.3129ZM263.673 71.7607C261.94 69.6112 262.277 66.4634 264.426 64.7299L279.145 52.8604C281.294 51.1269 284.442 51.4641 286.175 53.6137C287.909 55.7632 287.572 58.911 285.422 60.6445L270.704 72.514C268.554 74.2475 265.407 73.9103 263.673 71.7607ZM291.638 49.2086C289.904 47.0591 290.241 43.9113 292.391 42.1778L307.109 30.3082C309.259 28.5747 312.406 28.912 314.14 31.0615C315.873 33.211 315.536 36.3589 313.387 38.0924L298.668 49.9619C296.519 51.6954 293.371 51.3581 291.638 49.2086ZM319.602 26.6565C317.869 24.507 318.206 21.3592 320.355 19.6257L335.074 7.75611C337.223 6.02261 340.371 6.35987 342.104 8.50939C343.838 10.6589 343.501 13.8067 341.351 15.5402L326.633 27.4098C324.483 29.1433 321.336 28.806 319.602 26.6565ZM347.567 4.10435C345.833 1.95483 346.17 -1.19298 348.32 -2.92648L355.679 -8.86126C357.828 -10.5948 360.976 -10.2575 362.71 -8.10798C364.443 -5.95845 364.106 -2.81065 361.956 -1.07715L354.597 4.85764C352.448 6.59114 349.3 6.25388 347.567 4.10435Z" fill="#333333"/>
<path d="M321.384 133.111L456.219 235.202L434.836 402.091L278.617 466.889L143.781 364.798L165.165 197.909L321.384 133.111Z" fill="#333333"/>
</g>
<defs>
<clipPath id="clip0">
<rect width="600" height="600" fill="white"/>
</clipPath>
</defs>
</svg>
