<svg width="600" height="600" viewBox="0 0 600 600" fill="none" xmlns="http://www.w3.org/2000/svg">
<path d="M427.5 45.0215L427.5 109.107L372 77.0644L427.5 45.0215Z" fill="#333333"/>
<path d="M403.248 539.163L386.289 550.443L385 530.116L403.248 539.163Z" fill="#333333"/>
<path d="M453.248 453.163L436.289 464.443L435 444.116L453.248 453.163Z" fill="#333333"/>
<path d="M198.534 72.5234C188.932 75.0963 179.062 69.3978 176.489 59.7955C173.916 50.1931 179.614 40.323 189.217 37.7501C198.819 35.1771 208.689 40.8756 211.262 50.478C213.835 60.0804 208.137 69.9504 198.534 72.5234Z" fill="#333333"/>
<path d="M113.835 440.907C108.501 442.336 103.017 439.17 101.588 433.836C100.159 428.501 103.324 423.018 108.659 421.588C113.994 420.159 119.477 423.325 120.907 428.659C122.336 433.994 119.17 439.477 113.835 440.907Z" fill="#333333"/>
<path d="M81.8355 379.907C76.5008 381.336 71.0175 378.17 69.588 372.836C68.1586 367.501 71.3244 362.018 76.6591 360.588C81.9938 359.159 87.4771 362.325 88.9066 367.659C90.336 372.994 87.1701 378.477 81.8355 379.907Z" fill="#333333"/>
<path d="M565.932 377.291L551.756 418.945L510.102 404.769L524.278 363.115L565.932 377.291Z" fill="#333333"/>
<path fill-rule="evenodd" clip-rule="evenodd" d="M44.3341 195.244C43.2721 192.158 40.6475 189.671 38.4785 188.413C36.0898 187.027 35.2764 183.968 36.6619 181.579C38.0473 179.19 41.1069 178.377 43.4956 179.762C47.0784 181.84 51.7267 185.994 53.79 191.991C55.9982 198.408 54.9133 205.963 48.5466 213.659C43.9358 219.232 43.9955 222.984 44.7023 225.185C45.5327 227.772 47.7602 229.796 49.6689 230.781C52.1228 232.048 53.0853 235.064 51.8188 237.518C50.5523 239.971 47.5364 240.934 45.0825 239.668C41.5812 237.86 37.0485 234.059 35.181 228.242C33.1897 222.04 34.6137 214.812 40.8417 207.284C45.3137 201.879 45.2511 197.91 44.3341 195.244Z" fill="#333333"/>
<path fill-rule="evenodd" clip-rule="evenodd" d="M68.4982 192.274C67.4362 189.187 64.8116 186.7 62.6426 185.442C60.2538 184.056 59.4405 180.997 60.8259 178.608C62.2114 176.219 65.2709 175.406 67.6597 176.791C71.2425 178.869 75.8908 183.024 77.9541 189.02C80.1623 195.438 79.0773 202.993 72.7106 210.688C68.0999 216.261 68.1596 220.013 68.8663 222.215C69.6968 224.801 71.9243 226.825 73.833 227.811C76.2868 229.077 77.2494 232.093 75.9829 234.547C74.7164 237.001 71.7004 237.963 69.2466 236.697C65.7453 234.89 61.2126 231.088 59.3451 225.271C57.3538 219.07 58.7777 211.841 65.0057 204.314C69.4778 198.908 69.4152 194.939 68.4982 192.274Z" fill="#333333"/>
<circle cx="300.5" cy="299.5" r="135.5" fill="#333333"/>
</svg>
