<svg width="600" height="600" viewBox="0 0 600 600" fill="none" xmlns="http://www.w3.org/2000/svg">
<g clip-path="url(#clip0)">
<path d="M398.658 67.6577L460.56 84.2443L415.244 129.56L398.658 67.6577Z" fill="#333333"/>
<path d="M552.462 235.008L558.968 254.308L539.001 250.292L552.462 235.008Z" fill="#333333"/>
<path d="M489.165 184.318L495.671 203.619L475.704 199.603L489.165 184.318Z" fill="#333333"/>
<path d="M164.459 467.011L233.434 474.436L192.516 530.457L164.459 467.011Z" fill="#333333"/>
<path d="M70 318C70 327.941 61.9411 336 52 336C42.0589 336 34 327.941 34 318C34 308.059 42.0589 300 52 300C61.9411 300 70 308.059 70 318Z" fill="#333333"/>
<path d="M300 84C300 89.5228 295.523 94 290 94C284.477 94 280 89.5228 280 84C280 78.4772 284.477 74 290 74C295.523 74 300 78.4772 300 84Z" fill="#333333"/>
<path d="M396 530C396 535.523 391.523 540 386 540C380.477 540 376 535.523 376 530C376 524.477 380.477 520 386 520C391.523 520 396 524.477 396 530Z" fill="#333333"/>
<path d="M107.473 53L144.038 77.4734L119.565 114.039L82.9993 89.5658L107.473 53Z" fill="#333333"/>
<path fill-rule="evenodd" clip-rule="evenodd" d="M499.08 453.617C495.824 453.844 492.742 455.736 490.966 457.505C489.009 459.454 485.843 459.448 483.895 457.491C481.946 455.535 481.952 452.369 483.908 450.42C486.843 447.497 492.059 444.082 498.385 443.641C505.155 443.169 512.172 446.173 517.957 454.314C522.147 460.21 525.787 461.124 528.096 461.011C530.809 460.878 533.341 459.25 534.787 457.662C536.645 455.619 539.808 455.47 541.85 457.329C543.893 459.187 544.042 462.349 542.183 464.392C539.532 467.306 534.686 470.7 528.585 470.999C522.079 471.317 515.465 468.071 509.806 460.107C505.742 454.388 501.892 453.421 499.08 453.617Z" fill="#333333"/>
<path fill-rule="evenodd" clip-rule="evenodd" d="M-71.8612 540.482C-73.5947 538.333 -73.2575 535.185 -71.1079 533.452L-63.7489 527.517C-61.5993 525.783 -58.4515 526.121 -56.718 528.27C-54.9845 530.42 -55.3218 533.567 -57.4713 535.301L-64.8304 541.236C-66.9799 542.969 -70.1277 542.632 -71.8612 540.482ZM-51.2558 523.865C-52.9893 521.716 -52.6521 518.568 -50.5025 516.834L-35.7844 504.965C-33.6349 503.231 -30.4871 503.568 -28.7536 505.718C-27.0201 507.867 -27.3573 511.015 -29.5068 512.749L-44.225 524.618C-46.3745 526.352 -49.5223 526.015 -51.2558 523.865ZM-23.2913 501.313C-25.0248 499.163 -24.6876 496.016 -22.5381 494.282L-7.8199 482.413C-5.67038 480.679 -2.52257 481.016 -0.789073 483.166C0.944423 485.315 0.607165 488.463 -1.54236 490.197L-16.2605 502.066C-18.41 503.8 -21.5578 503.462 -23.2913 501.313ZM4.67315 478.761C2.93965 476.611 3.27691 473.463 5.42643 471.73L20.1446 459.86C22.2941 458.127 25.4419 458.464 27.1754 460.614C28.9089 462.763 28.5717 465.911 26.4221 467.644L11.704 479.514C9.55446 481.248 6.40665 480.91 4.67315 478.761ZM32.6376 456.209C30.9041 454.059 31.2414 450.911 33.3909 449.178L48.1091 437.308C50.2586 435.575 53.4064 435.912 55.1399 438.062C56.8734 440.211 56.5361 443.359 54.3866 445.092L39.6685 456.962C37.5189 458.695 34.3711 458.358 32.6376 456.209ZM60.6021 433.656C58.8686 431.507 59.2059 428.359 61.3554 426.626L76.0735 414.756C78.2231 413.023 81.3709 413.36 83.1044 415.509C84.8379 417.659 84.5006 420.807 82.3511 422.54L67.6329 434.41C65.4834 436.143 62.3356 435.806 60.6021 433.656ZM88.5666 411.104C86.8331 408.955 87.1703 405.807 89.3199 404.074L96.6789 398.139C98.8285 396.405 101.976 396.743 103.71 398.892C105.443 401.042 105.106 404.189 102.956 405.923L95.5974 411.858C93.4479 413.591 90.3001 413.254 88.5666 411.104Z" fill="#333333"/>
<rect x="193.059" y="176" width="232" height="232" transform="rotate(4.21672 193.059 176)" fill="#333333"/>
</g>
<defs>
<clipPath id="clip0">
<rect width="600" height="600" fill="white"/>
</clipPath>
</defs>
</svg>
